<svg width="24" height="24" viewBox="0 0 24 24" fill="none" xmlns="http://www.w3.org/2000/svg">
<path fill-rule="evenodd" clip-rule="evenodd" d="M15.5001 4H18.0001C18.5501 4 19.0001 4.45 19.0001 5C19.0001 5.55 18.5501 6 18.0001 6H6.00012C5.45012 6 5.00012 5.55 5.00012 5C5.00012 4.45 5.45012 4 6.00012 4H8.50012L9.21012 3.29C9.39012 3.11 9.65012 3 9.91012 3H14.0901C14.3501 3 14.6101 3.11 14.7901 3.29L15.5001 4ZM8.00004 21C6.90004 21 6.00004 20.1 6.00004 19V9.00004C6.00004 7.90004 6.90004 7.00004 8.00004 7.00004H16C17.1 7.00004 18 7.90004 18 9.00004V19C18 20.1 17.1 21 16 21H8.00004Z" fill="#E4163A"/>
</svg>
