<svg width="30" height="30" viewBox="0 0 30 30" fill="none" xmlns="http://www.w3.org/2000/svg">
<path fill-rule="evenodd" clip-rule="evenodd" d="M15.0002 0C6.72024 0 0.000244141 6.72 0.000244141 15C0.000244141 23.28 6.72024 30 15.0002 30C23.2802 30 30.0002 23.28 30.0002 15C30.0002 6.72 23.2802 0 15.0002 0ZM15 4.5C17.49 4.5 19.5 6.51 19.5 9C19.5 11.49 17.49 13.5 15 13.5C12.51 13.5 10.5 11.49 10.5 9C10.5 6.51 12.51 4.5 15 4.5ZM6.00004 20.9699C7.93504 23.8799 11.25 25.7999 15 25.7999C18.75 25.7999 22.065 23.8799 24 20.9699C23.955 17.9849 17.985 16.3499 15 16.3499C12 16.3499 6.04504 17.9849 6.00004 20.9699Z" fill="#9C9C9C"/>
</svg>
